<svg width="848" height="160" viewBox="0 0 848 160" fill="none" xmlns="http://www.w3.org/2000/svg">
<g id="SanFilm_AmTypewriter">
<path d="M91.1181 3.00677C105.06 3.18532 115.332 7.67344 121.936 16.4712L122.675 13.5762C124.047 8.19996 126.938 5.54007 131.348 5.59654C136.185 5.65849 137.847 8.65331 136.334 14.581L136.017 15.8217C135.947 16.0974 135.206 18.1624 133.794 22.0169C132.382 25.8713 130.99 30.4866 129.617 35.8629C129.442 36.5522 129.021 38.7597 128.355 42.4853L126.884 50.7647C126.851 51.4558 126.676 52.4217 126.359 53.6624C124.67 60.2793 121.194 63.5541 115.93 63.4867C110.382 63.4156 108.312 60.6231 109.719 55.1089C109.895 54.4197 109.983 54.075 109.983 54.075L111.835 48.4974C112.469 46.5693 112.928 45.0538 113.209 43.951C115.32 35.6798 114.058 29.1634 109.421 24.4017C104.927 19.6418 97.6297 17.1971 87.5292 17.0678C78.2822 16.9494 70.3217 19.0603 63.6476 23.4005C57.1157 27.7426 52.8998 33.6357 50.9998 41.0797C48.7831 49.7645 51.2014 56.2266 58.2547 60.466C62.2441 62.73 69.7006 64.8309 80.624 66.7687C96.8846 69.6048 107.564 73.3374 112.662 77.9668C120.328 84.8418 122.577 94.4827 119.41 106.89C116.103 119.848 108.574 130.332 96.8244 138.341C85.217 146.352 71.8023 150.26 56.5804 150.065C40.3626 149.858 28.1856 144.723 20.0494 134.661C19.9087 135.212 19.8215 135.833 19.7878 136.525C19.6119 137.214 19.5063 137.627 19.4711 137.765C19.1927 139.975 18.9655 141.424 18.7896 142.113C17.4877 147.214 14.3472 149.732 9.36807 149.668C3.96216 149.599 1.99809 146.67 3.47587 140.88C3.6518 140.19 3.86367 139.64 4.11149 139.228L7.70951 128.487C9.50853 123.116 10.6016 119.672 10.9886 118.156C11.6923 115.399 12.3922 111.259 13.0883 105.735C13.7844 100.212 14.4843 96.0719 15.188 93.3149C16.7714 87.1115 20.266 84.0444 25.6719 84.1136C31.2201 84.1847 33.2025 87.3219 31.6192 93.5253L30.6692 97.2473C30.2454 98.3484 29.7697 99.9328 29.2419 102.001C26.603 112.34 27.9237 120.586 33.2041 126.739C38.4845 132.892 46.9574 136.043 58.6228 136.192C69.4346 136.331 78.6747 133.959 86.3432 129.079C94.0116 124.198 98.9365 117.484 101.118 108.937C104.461 95.8412 97.9657 87.7364 81.6333 84.6229L69.9978 82.3993C58.4333 80.1766 49.6599 77.644 43.6773 74.8013C38.2286 72.1037 34.3586 67.9742 32.0672 62.4127C29.9533 56.7151 29.7935 50.3511 31.588 43.3206C34.6843 31.1895 41.7524 21.3913 52.7923 13.926C63.8322 6.46068 76.6075 2.82094 91.1181 3.00677Z" fill="#93278F"/>
<path d="M220.757 150.301C209.091 150.152 203.156 145.166 202.951 135.344C193.057 145.59 180.357 150.613 164.85 150.415C153.327 150.267 144.784 147.392 139.221 141.788C133.799 136.187 132.268 128.768 134.625 119.532C137.545 108.09 144.742 99.7455 156.215 94.4986C160.584 92.48 164.19 91.2123 167.034 90.6955C170.055 90.0427 175.885 89.2875 184.525 88.43C196.791 87.3424 204.984 85.7185 209.104 83.5584C213.366 81.4002 216.253 77.3572 217.766 71.4295C219.209 65.7775 218.272 61.3398 214.956 58.1163C211.817 54.7568 206.62 53.0306 199.364 52.9377C192.963 52.8557 186.548 54.5024 180.12 57.8776C177.634 59.2288 176.198 60.6626 175.811 62.179C175.67 62.7304 176.134 63.4279 177.203 64.2714C178.843 65.6755 179.241 68.0317 178.396 71.3402C177.693 74.0973 176.045 76.3582 173.454 78.1229C171.005 79.8895 168.215 80.7528 165.086 80.7127C161.387 80.6653 158.574 79.3846 156.646 76.8704C154.861 74.3581 154.426 71.3098 155.341 67.7256C157.311 60.0059 162.913 53.439 172.144 48.0251C181.518 42.613 191.825 39.9789 203.063 40.1228C228.955 40.4544 238.822 52.6824 232.664 76.8067L222.003 118.576C220.314 125.193 219.454 129.124 219.422 130.368C219.044 135.204 220.846 137.647 224.83 137.698C229.809 137.762 233.424 133.383 235.676 124.56L238.262 114.428C239.388 110.017 242.156 107.839 246.566 107.896C251.261 107.956 252.764 111.294 251.075 117.911L250.811 118.945L247.589 130.729C243.927 143.959 234.983 150.483 220.757 150.301ZM207.573 108.848L211.534 94.1698C207.7 96.8868 203.865 98.7739 200.027 99.8312C196.331 100.89 189.896 101.776 180.723 102.488C164.118 103.797 154.531 109.483 151.963 119.546C150.626 124.785 151.49 128.945 154.557 132.027C157.767 135.111 162.714 136.695 169.401 136.781C178.932 136.903 187.034 134.517 193.707 129.624C200.557 124.594 205.179 117.669 207.573 108.848Z" fill="#93278F"/>
<path d="M307.536 51.4187L306.058 57.2085C317.268 46.841 329.986 41.7483 344.212 41.9305C351.894 42.0289 358.657 44.0517 364.5 47.9991C370.378 51.8086 373.806 56.5548 374.781 62.2377C375.577 66.9502 375.007 73.0975 373.072 80.6794L363.044 119.968C361.531 125.895 360.705 129.411 360.566 130.516C360.081 135.212 361.403 137.58 364.533 137.62C365.813 137.637 367.484 137.52 369.546 137.27C371.786 136.883 373.332 136.696 374.186 136.707C376.035 136.73 377.442 137.371 378.405 138.628C379.511 139.887 379.836 141.412 379.378 143.204C378.85 145.272 377.557 146.984 375.498 148.341C373.439 149.698 371.2 150.361 368.782 150.33C366.79 150.304 363.589 149.986 359.177 149.377C354.765 148.767 350.568 148.437 346.585 148.386C342.886 148.338 339.792 148.437 337.303 148.682C329.979 149.418 326.104 149.783 325.677 149.778C319.986 149.705 317.757 147.256 318.988 142.431C320.079 138.158 323.043 136.052 327.88 136.114C329.018 136.128 330.263 136.283 331.615 136.576C334.178 137.162 335.814 137.46 336.526 137.469C339.94 137.513 342.757 133.746 344.977 126.167L348.095 115.627L351.528 103.016L355.539 87.3009C357.404 79.9947 358.332 74.9585 358.325 72.1923C358.382 66.9375 356.645 62.8353 353.117 59.8857C349.231 56.655 344.301 55.0013 338.326 54.9248C326.945 54.7791 317.762 58.6031 310.778 66.397C305.991 71.7295 301.944 80.8749 298.637 93.8331L291.617 121.335C290.069 127.4 289.44 131.541 289.731 133.758C290.022 135.975 291.305 137.097 293.581 137.127C294.719 137.141 296.354 136.886 298.487 136.36C300.619 135.834 302.326 135.579 303.606 135.595C308.016 135.652 309.623 138.024 308.427 142.711C307.266 147.26 303.84 149.498 298.149 149.425C297.011 149.41 293.418 148.95 287.37 148.042C284.345 147.589 280.913 147.337 277.072 147.288C274.084 147.25 270.031 147.474 264.911 147.962C258.475 148.571 254.831 148.87 253.977 148.859C248.002 148.783 245.613 146.401 246.809 141.714C247.935 137.303 250.774 135.126 255.327 135.185C256.038 135.194 257.266 135.417 259.009 135.854C260.896 136.293 262.763 136.524 264.613 136.548C268.88 136.603 272.106 132.633 274.289 124.64L280.574 101.693L286.96 76.6722L288.381 69.4295C289.292 64.7388 289.462 61.56 288.888 59.893C288.492 58.09 287.156 57.1739 284.879 57.1447C283.884 57.132 282.337 57.3196 280.24 57.7077C278.32 57.9597 276.862 58.0793 275.867 58.0666C270.745 58.001 268.747 55.7625 269.873 51.3512C271.034 46.8021 274.816 44.5685 281.218 44.6505C282.071 44.6614 282.765 44.7394 283.299 44.8846L290.983 45.8128C293.259 45.842 295.286 45.7296 297.064 45.4758C300.833 45.2474 302.788 45.1342 302.931 45.136C307.056 45.1888 308.591 47.2831 307.536 51.4187Z" fill="#93278F"/>
<path d="M424.622 89.8453L429.056 72.4758L437.234 39.5951C439.838 29.3939 437.512 24.2469 430.257 24.154C428.407 24.1303 426.95 24.2499 425.883 24.5129C423.502 24.8973 421.599 25.0804 420.177 25.0622C418.327 25.0385 416.921 24.3981 415.957 23.141C415.029 21.7461 414.811 20.0837 415.303 18.1537C416.535 13.3288 420.138 10.9547 426.113 11.0312C426.824 11.0403 427.874 11.1229 429.261 11.279L443.616 12.915C449.023 13.5375 455.141 13.8924 461.97 13.9799C465.668 14.0272 473.688 13.9225 486.028 13.6656L510.779 13.1528C514.086 13.0568 517.98 12.8992 522.461 12.68C524.487 12.5677 526.639 12.5261 528.915 12.5552C536.455 12.6518 539.398 15.9396 537.744 22.4187C537.111 24.9001 535.788 28.6865 533.774 33.7779C531.761 38.8694 530.42 42.7247 529.752 45.3439C529.189 47.5496 528.628 50.3085 528.068 53.6206C527.508 56.9327 526.876 59.9673 526.172 62.7244C524.729 68.3764 521.448 71.1696 516.326 71.104C511.062 71.0366 509.258 67.7633 510.911 61.2842C511.404 59.3543 512.231 56.3913 513.394 52.3954C514.699 48.4013 515.598 45.4393 516.09 43.5093C517.955 36.2031 517 31.5577 513.225 29.5731C509.449 27.5885 499.595 26.4942 483.662 26.2901C470.147 26.117 462.166 27.1904 459.718 29.5102C457.838 31.2841 455.509 37.6162 452.729 48.5066L448.823 63.8083C447.838 67.6682 447.72 70.0871 448.47 71.0648C449.397 71.9065 452.279 72.3583 457.116 72.4202L464.158 72.5104C473.405 72.6288 478.872 69.3796 480.561 62.7626C480.948 61.2462 481.263 59.1757 481.505 56.551C481.889 53.9282 482.256 51.9275 482.608 50.5489C483.945 45.3105 487.175 42.7241 492.296 42.7897C497.133 42.8516 498.777 45.9154 497.229 51.9809C497.018 52.808 496.453 54.4605 495.536 56.9382L491.405 68.0879C489.57 73.0433 488.335 76.7617 487.702 79.2431C486.259 84.8951 485.07 92.0716 484.133 100.773C483.821 103.673 483.331 106.433 482.662 109.052C481.29 114.428 478.043 117.084 472.922 117.018C468.085 116.956 466.405 114.03 467.883 108.241C468.235 106.862 468.834 104.795 469.68 102.04C470.668 99.2864 471.338 97.2205 471.69 95.8419C472.781 91.5685 472.275 88.7959 470.174 87.5243C468.855 86.5393 465.706 86.0149 460.727 85.9511L454.112 85.8664C449.133 85.8026 445.933 86.3149 444.514 87.4031C443.094 88.4914 441.751 91.5168 440.484 96.4796L434.204 121.086C432.55 127.565 432.136 131.986 432.96 134.348C433.962 136.573 436.526 137.713 440.651 137.765C441.647 137.778 443.229 137.729 445.399 137.619C447.568 137.508 449.15 137.459 450.146 137.472C456.69 137.556 459.364 139.941 458.168 144.628C457.675 146.558 456.47 148.202 454.554 149.561C452.779 150.921 450.825 151.588 448.691 151.56C446.415 151.531 443.16 151.144 438.925 150.398C432.912 149.353 425.922 148.779 417.956 148.677C412.834 148.612 407.252 148.955 401.208 149.708L393.689 150.649C393.262 150.643 392.746 150.706 392.142 150.836C391.573 150.829 391.146 150.823 390.862 150.82C384.602 150.74 382.106 148.218 383.373 143.256C384.499 138.844 387.267 136.667 391.677 136.723C392.246 136.731 394.06 136.892 397.119 137.208C398.579 137.641 400.02 137.867 401.442 137.886C405.283 137.935 408.197 136.866 410.182 134.678C412.345 132.355 414.237 128.299 415.857 122.511L424.622 89.8453Z" fill="#93278F"/>
<path d="M570.708 91.9236L563.847 118.805C562.087 125.698 561.121 129.765 560.946 131.008C560.074 137.22 561.203 140.347 564.333 140.387C565.044 140.396 566.91 140.074 569.931 139.421C570.713 139.154 571.815 139.03 573.238 139.048C578.644 139.118 580.766 141.427 579.605 145.976C579.112 147.906 577.766 149.548 575.564 150.903C573.505 152.26 571.124 152.921 568.421 152.886C566.145 152.857 562.73 152.537 558.176 151.925C553.8 151.178 550.474 150.789 548.197 150.76C544.499 150.713 540.303 150.936 535.61 151.429C529.885 152.047 526.099 152.344 524.249 152.321C518.559 152.248 516.312 149.868 517.508 145.181C518.669 140.632 521.668 138.388 526.505 138.45C527.643 138.465 529.226 138.692 531.255 139.133C533.425 139.576 535.08 139.805 536.218 139.819C539.632 139.863 542.821 135.478 545.784 126.664C545.925 126.113 547.455 120.116 550.376 108.675L554.704 91.7187C557.624 80.2769 559.154 74.2802 559.295 73.7288C560.801 65.035 559.775 60.6653 556.219 60.6197C555.08 60.6051 553.374 60.8599 551.099 61.384C549.002 61.772 547.456 61.9597 546.46 61.9469C541.338 61.8813 539.341 59.6429 540.467 55.2316C541.663 50.5446 545.391 48.2412 551.65 48.3213C554.353 48.3559 556.256 48.4495 557.359 48.6019C561.771 49.2116 564.617 49.5247 565.897 49.5411C567.035 49.5556 568.777 49.4396 571.124 49.1931C573.648 48.8105 575.479 48.6265 576.617 48.6411C580.743 48.6939 582.119 51.4085 580.747 56.7847C580.606 57.3361 580.324 58.1623 579.9 59.2634C579.477 60.3644 579.194 61.1906 579.054 61.742C578.63 62.843 577.397 67.1146 575.355 74.5569C573.77 80.207 572.221 85.9959 570.708 91.9236ZM573.439 37.6052C570.167 37.5633 567.604 36.424 565.748 34.1874C564.07 31.8148 563.636 29.0431 564.445 25.8725C565.254 22.7019 567.079 20.0283 569.918 17.8518C572.899 15.6771 576.026 14.6107 579.298 14.6526C582.57 14.6946 585.062 15.8329 586.776 18.0677C588.631 20.3043 589.154 23.008 588.345 26.1786C587.536 29.3492 585.623 32.0908 582.606 34.4033C579.767 36.5798 576.711 37.6471 573.439 37.6052Z" fill="#93278F"/>
<path d="M642.243 66.2854L626.042 130.597C624.39 137.629 625.413 141.169 629.112 141.216C629.966 141.227 631.832 140.905 634.711 140.251C636.488 139.997 637.662 139.874 638.231 139.881C642.925 139.941 644.674 142.315 643.478 147.002C642.317 151.551 638.82 153.788 632.987 153.713C630.711 153.684 627.154 153.362 622.315 152.747C617.477 152.132 613.706 151.807 611.003 151.772C608.727 151.743 605.243 151.975 600.55 152.468C595.856 152.961 592.443 153.194 590.309 153.167L589.242 153.153C583.267 153.076 580.913 150.557 582.18 145.594C583.27 141.321 586.234 139.215 591.071 139.277C591.356 139.281 591.854 139.287 592.565 139.296C593.383 139.445 594.006 139.522 594.433 139.527C597.848 140.124 599.841 140.426 600.41 140.434C602.97 140.467 604.799 139.453 605.896 137.392C607.17 135.196 609.022 129.618 611.451 120.659L615.359 106.188L624.18 74.1449L633.361 37.3353C634.275 33.1979 634.765 30.4381 634.832 29.056C634.646 25.8726 633.059 24.2618 630.071 24.2235C629.644 24.218 627.724 24.47 624.312 24.9796C622.677 25.2352 621.361 25.3567 620.365 25.3439C615.528 25.282 613.673 23.0454 614.799 18.6341C615.96 14.0849 619.386 11.8468 625.076 11.9196C626.641 11.9397 627.975 12.0259 629.078 12.1783L634.041 12.8643C636.247 13.1691 638.132 13.3316 639.697 13.3516C641.119 13.3698 643.306 13.1904 646.257 12.8133C649.243 12.2983 651.447 12.0499 652.87 12.0681C656.142 12.11 657.268 14.1299 656.247 18.1276C655.895 19.5061 655.56 20.5391 655.242 21.2266C651.537 31.8285 647.204 46.8481 642.243 66.2854Z" fill="#93278F"/>
<path d="M709.558 56.3598L708.028 62.3564C714.662 56.4943 720.537 52.4896 725.652 50.3423C730.803 48.0571 736.792 46.9582 743.621 47.0456C757.562 47.2242 766.468 52.5938 770.338 63.1544C776.653 57.4266 782.599 53.4227 788.176 51.143C793.753 48.8633 800.454 47.7735 808.278 47.8737C816.387 47.9776 823.22 49.7247 828.778 53.1152C834.941 56.9283 838.512 62.2296 839.49 69.019C840.179 73.5919 839.274 80.7721 836.776 90.5596L831.656 110.617L827.484 126.123C826.042 131.775 825.233 135.222 825.059 136.465C824.504 141.437 825.72 143.942 828.707 143.98C829.703 143.993 831.249 143.805 833.347 143.417C835.444 143.029 836.99 142.841 837.986 142.854C842.965 142.918 844.927 145.017 843.872 149.153C842.64 153.978 839.179 156.354 833.489 156.281C831.355 156.254 828.153 155.936 823.884 155.328C819.721 154.86 816.502 154.611 814.226 154.582C811.808 154.551 808.198 154.712 803.398 155.066C798.705 155.559 795.149 155.79 792.731 155.759C786.756 155.683 784.384 153.232 785.616 148.407C786.671 144.271 789.475 142.233 794.028 142.291C794.597 142.298 795.984 142.454 798.19 142.759C798.973 143.046 800.076 143.198 801.499 143.217C803.917 143.247 805.71 142.095 806.877 139.759C808.186 137.424 810.109 131.571 812.643 122.199L816.076 109.588L819.56 95.9405C821.987 86.4286 822.964 79.5259 822.49 75.2324C822.193 70.8029 820.299 67.321 816.807 64.7868C813.315 62.2526 808.937 60.9518 803.673 60.8844C793.572 60.7551 785.668 64.0423 779.961 70.7461C775.459 76.0823 771.502 85.4363 768.089 98.808L764.341 113.489C761.034 126.448 759.243 134.585 758.967 137.9C758.869 141.08 760.172 142.687 762.875 142.722C763.728 142.733 764.973 142.61 766.608 142.355C768.421 141.963 769.754 141.773 770.607 141.784C772.599 141.809 774.059 142.519 774.987 143.914C776.093 145.173 776.4 146.768 775.908 148.698C774.746 153.247 770.823 155.478 764.136 155.393C762.003 155.366 758.872 155.049 754.745 154.443C750.76 153.838 747.701 153.523 745.567 153.495C742.579 153.457 739.237 153.691 735.54 154.197C731.842 154.703 728.642 154.938 725.939 154.904C720.107 154.829 717.788 152.448 718.985 147.761C720.076 143.488 722.755 141.378 727.023 141.433C728.587 141.453 729.762 141.606 730.545 141.893C732.431 142.332 733.872 142.558 734.868 142.571C738.282 142.614 740.957 139.122 742.894 132.093L745.588 122.377C746.504 119.346 747.332 116.383 748.071 113.488C748.846 111.009 749.252 109.7 749.287 109.562L753.668 92.3997C756.729 80.4064 757.15 72.0445 754.932 67.3137C752.857 62.5848 747.551 60.1657 739.015 60.0564C729.626 59.9361 721.597 63.1526 714.929 69.7058C709.432 75.0292 704.976 84.3768 701.563 97.7486L694.544 125.25C693.136 130.764 692.381 134.005 692.277 134.972C691.649 139.666 692.616 142.03 695.177 142.062C695.888 142.071 697.452 141.815 699.869 141.293C700.154 141.296 700.598 141.233 701.202 141.102C701.771 141.11 702.269 141.116 702.696 141.121C708.244 141.192 710.438 143.503 709.277 148.052C708.151 152.463 704.387 154.628 697.985 154.546C695.567 154.515 692.632 154.27 689.181 153.811C684.485 153.197 680.43 152.869 677.015 152.825C675.308 152.803 672.126 152.97 667.468 153.325C661.21 153.798 657.441 154.026 656.16 154.01C650.47 153.937 648.223 151.557 649.419 146.87C650.51 142.597 653.758 140.495 659.164 140.564C659.449 140.567 659.875 140.573 660.444 140.58C660.978 140.725 661.387 140.8 661.672 140.803L666.743 141.906C666.85 142.045 667.117 142.118 667.544 142.123C671.385 142.173 674.31 138.822 676.318 132.07L679.753 120.289L687.828 88.6521C690.819 76.9346 692.328 69.6238 692.356 66.7198C692.526 63.8176 691.188 62.3482 688.343 62.3118C687.774 62.3045 685.694 62.6236 682.104 63.2692C680.611 63.5267 679.438 63.6499 678.584 63.639C673.32 63.5716 671.252 61.3322 672.378 56.9209C673.574 52.2339 677.088 49.9278 682.921 50.0025C684.486 50.0225 686.585 50.1877 689.217 50.498C691.85 50.8083 694.162 50.9763 696.154 51.0018C696.865 51.0109 697.665 50.952 698.554 50.8251C699.407 50.836 699.905 50.8424 700.047 50.8442L705.327 50.2894L705.967 50.2976C709.382 50.3414 710.579 52.3621 709.558 56.3598Z" fill="#93278F"/>
<path d="M91.1181 3.00677C105.06 3.18532 115.332 7.67344 121.936 16.4712L122.675 13.5762C124.047 8.19996 126.938 5.54007 131.348 5.59654C136.185 5.65849 137.847 8.65331 136.334 14.581L136.017 15.8217C135.947 16.0974 135.206 18.1624 133.794 22.0169C132.382 25.8713 130.99 30.4866 129.617 35.8629C129.442 36.5522 129.021 38.7597 128.355 42.4853L126.884 50.7647C126.851 51.4558 126.676 52.4217 126.359 53.6624C124.67 60.2793 121.194 63.5541 115.93 63.4867C110.382 63.4156 108.312 60.6231 109.719 55.1089C109.895 54.4197 109.983 54.075 109.983 54.075L111.835 48.4974C112.469 46.5693 112.928 45.0538 113.209 43.951C115.32 35.6798 114.058 29.1634 109.421 24.4017C104.927 19.6418 97.6297 17.1971 87.5292 17.0678C78.2822 16.9494 70.3217 19.0603 63.6476 23.4005C57.1157 27.7426 52.8998 33.6357 50.9998 41.0797C48.7831 49.7645 51.2014 56.2266 58.2547 60.466C62.2441 62.73 69.7006 64.8309 80.624 66.7687C96.8846 69.6048 107.564 73.3374 112.662 77.9668C120.328 84.8418 122.577 94.4827 119.41 106.89C116.103 119.848 108.574 130.332 96.8244 138.341C85.217 146.352 71.8023 150.26 56.5804 150.065C40.3626 149.858 28.1856 144.723 20.0494 134.661C19.9087 135.212 19.8215 135.833 19.7878 136.525C19.6119 137.214 19.5063 137.627 19.4711 137.765C19.1927 139.975 18.9655 141.424 18.7896 142.113C17.4877 147.214 14.3472 149.732 9.36807 149.668C3.96216 149.599 1.99809 146.67 3.47587 140.88C3.6518 140.19 3.86367 139.64 4.11149 139.228L7.70951 128.487C9.50853 123.116 10.6016 119.672 10.9886 118.156C11.6923 115.399 12.3922 111.259 13.0883 105.735C13.7844 100.212 14.4843 96.0719 15.188 93.3149C16.7714 87.1115 20.266 84.0444 25.6719 84.1136C31.2201 84.1847 33.2025 87.3219 31.6192 93.5253L30.6692 97.2473C30.2454 98.3484 29.7697 99.9328 29.2419 102.001C26.603 112.34 27.9237 120.586 33.2041 126.739C38.4845 132.892 46.9574 136.043 58.6228 136.192C69.4346 136.331 78.6747 133.959 86.3432 129.079C94.0116 124.198 98.9365 117.484 101.118 108.937C104.461 95.8412 97.9657 87.7364 81.6333 84.6229L69.9978 82.3993C58.4333 80.1766 49.6599 77.644 43.6773 74.8013C38.2286 72.1037 34.3586 67.9742 32.0672 62.4127C29.9533 56.7151 29.7935 50.3511 31.588 43.3206C34.6843 31.1895 41.7524 21.3913 52.7923 13.926C63.8322 6.46068 76.6075 2.82094 91.1181 3.00677Z" stroke="black" stroke-width="6"/>
<path d="M220.757 150.301C209.091 150.152 203.156 145.166 202.951 135.344C193.057 145.59 180.357 150.613 164.85 150.415C153.327 150.267 144.784 147.392 139.221 141.788C133.799 136.187 132.268 128.768 134.625 119.532C137.545 108.09 144.742 99.7455 156.215 94.4986C160.584 92.48 164.19 91.2123 167.034 90.6955C170.055 90.0427 175.885 89.2875 184.525 88.43C196.791 87.3424 204.984 85.7185 209.104 83.5584C213.366 81.4002 216.253 77.3572 217.766 71.4295C219.209 65.7775 218.272 61.3398 214.956 58.1163C211.817 54.7568 206.62 53.0306 199.364 52.9377C192.963 52.8557 186.548 54.5024 180.12 57.8776C177.634 59.2288 176.198 60.6626 175.811 62.179C175.67 62.7304 176.134 63.4279 177.203 64.2714C178.843 65.6755 179.241 68.0317 178.396 71.3402C177.693 74.0973 176.045 76.3582 173.454 78.1229C171.005 79.8895 168.215 80.7528 165.086 80.7127C161.387 80.6653 158.574 79.3846 156.646 76.8704C154.861 74.3581 154.426 71.3098 155.341 67.7256C157.311 60.0059 162.913 53.439 172.144 48.0251C181.518 42.613 191.825 39.9789 203.063 40.1228C228.955 40.4544 238.822 52.6824 232.664 76.8067L222.003 118.576C220.314 125.193 219.454 129.124 219.422 130.368C219.044 135.204 220.846 137.647 224.83 137.698C229.809 137.762 233.424 133.383 235.676 124.56L238.262 114.428C239.388 110.017 242.156 107.839 246.566 107.896C251.261 107.956 252.764 111.294 251.075 117.911L250.811 118.945L247.589 130.729C243.927 143.959 234.983 150.483 220.757 150.301ZM207.573 108.848L211.534 94.1698C207.7 96.8868 203.865 98.7739 200.027 99.8312C196.331 100.89 189.896 101.776 180.723 102.488C164.118 103.797 154.531 109.483 151.963 119.546C150.626 124.785 151.49 128.945 154.557 132.027C157.767 135.111 162.714 136.695 169.401 136.781C178.932 136.903 187.034 134.517 193.707 129.624C200.557 124.594 205.179 117.669 207.573 108.848Z" stroke="black" stroke-width="6"/>
<path d="M307.536 51.4187L306.058 57.2085C317.268 46.841 329.986 41.7483 344.212 41.9305C351.894 42.0289 358.657 44.0517 364.5 47.9991C370.378 51.8086 373.806 56.5548 374.781 62.2377C375.577 66.9502 375.007 73.0975 373.072 80.6794L363.044 119.968C361.531 125.895 360.705 129.411 360.566 130.516C360.081 135.212 361.403 137.58 364.533 137.62C365.813 137.637 367.484 137.52 369.546 137.27C371.786 136.883 373.332 136.696 374.186 136.707C376.035 136.73 377.442 137.371 378.405 138.628C379.511 139.887 379.836 141.412 379.378 143.204C378.85 145.272 377.557 146.984 375.498 148.341C373.439 149.698 371.2 150.361 368.782 150.33C366.79 150.304 363.589 149.986 359.177 149.377C354.765 148.767 350.568 148.437 346.585 148.386C342.886 148.338 339.792 148.437 337.303 148.682C329.979 149.418 326.104 149.783 325.677 149.778C319.986 149.705 317.757 147.256 318.988 142.431C320.079 138.158 323.043 136.052 327.88 136.114C329.018 136.128 330.263 136.283 331.615 136.576C334.178 137.162 335.814 137.46 336.526 137.469C339.94 137.513 342.757 133.746 344.977 126.167L348.095 115.627L351.528 103.016L355.539 87.3009C357.404 79.9947 358.332 74.9585 358.325 72.1923C358.382 66.9375 356.645 62.8353 353.117 59.8857C349.231 56.655 344.301 55.0013 338.326 54.9248C326.945 54.7791 317.762 58.6031 310.778 66.397C305.991 71.7295 301.944 80.8749 298.637 93.8331L291.617 121.335C290.069 127.4 289.44 131.541 289.731 133.758C290.022 135.975 291.305 137.097 293.581 137.127C294.719 137.141 296.354 136.886 298.487 136.36C300.619 135.834 302.326 135.579 303.606 135.595C308.016 135.652 309.623 138.024 308.427 142.711C307.266 147.26 303.84 149.498 298.149 149.425C297.011 149.41 293.418 148.95 287.37 148.042C284.345 147.589 280.913 147.337 277.072 147.288C274.084 147.25 270.031 147.474 264.911 147.962C258.475 148.571 254.831 148.87 253.977 148.859C248.002 148.783 245.613 146.401 246.809 141.714C247.935 137.303 250.774 135.126 255.327 135.185C256.038 135.194 257.266 135.417 259.009 135.854C260.896 136.293 262.763 136.524 264.613 136.548C268.88 136.603 272.106 132.633 274.289 124.64L280.574 101.693L286.96 76.6722L288.381 69.4295C289.292 64.7388 289.462 61.56 288.888 59.893C288.492 58.09 287.156 57.1739 284.879 57.1447C283.884 57.132 282.337 57.3196 280.24 57.7077C278.32 57.9597 276.862 58.0793 275.867 58.0666C270.745 58.001 268.747 55.7625 269.873 51.3512C271.034 46.8021 274.816 44.5685 281.218 44.6505C282.071 44.6614 282.765 44.7394 283.299 44.8846L290.983 45.8128C293.259 45.842 295.286 45.7296 297.064 45.4758C300.833 45.2474 302.788 45.1342 302.931 45.136C307.056 45.1888 308.591 47.2831 307.536 51.4187Z" stroke="black" stroke-width="6"/>
<path d="M424.622 89.8453L429.056 72.4758L437.234 39.5951C439.838 29.3939 437.512 24.2469 430.257 24.154C428.407 24.1303 426.95 24.2499 425.883 24.5129C423.502 24.8973 421.599 25.0804 420.177 25.0622C418.327 25.0385 416.921 24.3981 415.957 23.141C415.029 21.7461 414.811 20.0837 415.303 18.1537C416.535 13.3288 420.138 10.9547 426.113 11.0312C426.824 11.0403 427.874 11.1229 429.261 11.279L443.616 12.915C449.023 13.5375 455.141 13.8924 461.97 13.9799C465.668 14.0272 473.688 13.9225 486.028 13.6656L510.779 13.1528C514.086 13.0568 517.98 12.8992 522.461 12.68C524.487 12.5677 526.639 12.5261 528.915 12.5552C536.455 12.6518 539.398 15.9396 537.744 22.4187C537.111 24.9001 535.788 28.6865 533.774 33.7779C531.761 38.8694 530.42 42.7247 529.752 45.3439C529.189 47.5496 528.628 50.3085 528.068 53.6206C527.508 56.9327 526.876 59.9673 526.172 62.7244C524.729 68.3764 521.448 71.1696 516.326 71.104C511.062 71.0366 509.258 67.7633 510.911 61.2842C511.404 59.3543 512.231 56.3913 513.394 52.3954C514.699 48.4013 515.598 45.4393 516.09 43.5093C517.955 36.2031 517 31.5577 513.225 29.5731C509.449 27.5885 499.595 26.4942 483.662 26.2901C470.147 26.117 462.166 27.1904 459.718 29.5102C457.838 31.2841 455.509 37.6162 452.729 48.5066L448.823 63.8083C447.838 67.6682 447.72 70.0871 448.47 71.0648C449.397 71.9065 452.279 72.3583 457.116 72.4202L464.158 72.5104C473.405 72.6288 478.872 69.3796 480.561 62.7626C480.948 61.2462 481.263 59.1757 481.505 56.551C481.889 53.9282 482.256 51.9275 482.608 50.5489C483.945 45.3105 487.175 42.7241 492.296 42.7897C497.133 42.8516 498.777 45.9154 497.229 51.9809C497.018 52.808 496.453 54.4605 495.536 56.9382L491.405 68.0879C489.57 73.0433 488.335 76.7617 487.702 79.2431C486.259 84.8951 485.07 92.0716 484.133 100.773C483.821 103.673 483.331 106.433 482.662 109.052C481.29 114.428 478.043 117.084 472.922 117.018C468.085 116.956 466.405 114.03 467.883 108.241C468.235 106.862 468.834 104.795 469.68 102.04C470.668 99.2864 471.338 97.2205 471.69 95.8419C472.781 91.5685 472.275 88.7959 470.174 87.5243C468.855 86.5393 465.706 86.0149 460.727 85.9511L454.112 85.8664C449.133 85.8026 445.933 86.3149 444.514 87.4031C443.094 88.4914 441.751 91.5168 440.484 96.4796L434.204 121.086C432.55 127.565 432.136 131.986 432.96 134.348C433.962 136.573 436.526 137.713 440.651 137.765C441.647 137.778 443.229 137.729 445.399 137.619C447.568 137.508 449.15 137.459 450.146 137.472C456.69 137.556 459.364 139.941 458.168 144.628C457.675 146.558 456.47 148.202 454.554 149.561C452.779 150.921 450.825 151.588 448.691 151.56C446.415 151.531 443.16 151.144 438.925 150.398C432.912 149.353 425.922 148.779 417.956 148.677C412.834 148.612 407.252 148.955 401.208 149.708L393.689 150.649C393.262 150.643 392.746 150.706 392.142 150.836C391.573 150.829 391.146 150.823 390.862 150.82C384.602 150.74 382.106 148.218 383.373 143.256C384.499 138.844 387.267 136.667 391.677 136.723C392.246 136.731 394.06 136.892 397.119 137.208C398.579 137.641 400.02 137.867 401.442 137.886C405.283 137.935 408.197 136.866 410.182 134.678C412.345 132.355 414.237 128.299 415.857 122.511L424.622 89.8453Z" stroke="black" stroke-width="6"/>
<path d="M570.708 91.9236L563.847 118.805C562.087 125.698 561.121 129.765 560.946 131.008C560.074 137.22 561.203 140.347 564.333 140.387C565.044 140.396 566.91 140.074 569.931 139.421C570.713 139.154 571.815 139.03 573.238 139.048C578.644 139.118 580.766 141.427 579.605 145.976C579.112 147.906 577.766 149.548 575.564 150.903C573.505 152.26 571.124 152.921 568.421 152.886C566.145 152.857 562.73 152.537 558.176 151.925C553.8 151.178 550.474 150.789 548.197 150.76C544.499 150.713 540.303 150.936 535.61 151.429C529.885 152.047 526.099 152.344 524.249 152.321C518.559 152.248 516.312 149.868 517.508 145.181C518.669 140.632 521.668 138.388 526.505 138.45C527.643 138.465 529.226 138.692 531.255 139.133C533.425 139.576 535.08 139.805 536.218 139.819C539.632 139.863 542.821 135.478 545.784 126.664C545.925 126.113 547.455 120.116 550.376 108.675L554.704 91.7187C557.624 80.2769 559.154 74.2802 559.295 73.7288C560.801 65.035 559.775 60.6653 556.219 60.6197C555.08 60.6051 553.374 60.8599 551.099 61.384C549.002 61.772 547.456 61.9597 546.46 61.9469C541.338 61.8813 539.341 59.6429 540.467 55.2316C541.663 50.5446 545.391 48.2412 551.65 48.3213C554.353 48.3559 556.256 48.4495 557.359 48.6019C561.771 49.2116 564.617 49.5247 565.897 49.5411C567.035 49.5556 568.777 49.4396 571.124 49.1931C573.648 48.8105 575.479 48.6265 576.617 48.6411C580.743 48.6939 582.119 51.4085 580.747 56.7847C580.606 57.3361 580.324 58.1623 579.9 59.2634C579.477 60.3644 579.194 61.1906 579.054 61.742C578.63 62.843 577.397 67.1146 575.355 74.5569C573.77 80.207 572.221 85.9959 570.708 91.9236ZM573.439 37.6052C570.167 37.5633 567.604 36.424 565.748 34.1874C564.07 31.8148 563.636 29.0431 564.445 25.8725C565.254 22.7019 567.079 20.0283 569.918 17.8518C572.899 15.6771 576.026 14.6107 579.298 14.6526C582.57 14.6946 585.062 15.8329 586.776 18.0677C588.631 20.3043 589.154 23.008 588.345 26.1786C587.536 29.3492 585.623 32.0908 582.606 34.4033C579.767 36.5798 576.711 37.6471 573.439 37.6052Z" stroke="black" stroke-width="6"/>
<path d="M642.243 66.2854L626.042 130.597C624.39 137.629 625.413 141.169 629.112 141.216C629.966 141.227 631.832 140.905 634.711 140.251C636.488 139.997 637.662 139.874 638.231 139.881C642.925 139.941 644.674 142.315 643.478 147.002C642.317 151.551 638.82 153.788 632.987 153.713C630.711 153.684 627.154 153.362 622.315 152.747C617.477 152.132 613.706 151.807 611.003 151.772C608.727 151.743 605.243 151.975 600.55 152.468C595.856 152.961 592.443 153.194 590.309 153.167L589.242 153.153C583.267 153.076 580.913 150.557 582.18 145.594C583.27 141.321 586.234 139.215 591.071 139.277C591.356 139.281 591.854 139.287 592.565 139.296C593.383 139.445 594.006 139.522 594.433 139.527C597.848 140.124 599.841 140.426 600.41 140.434C602.97 140.467 604.799 139.453 605.896 137.392C607.17 135.196 609.022 129.618 611.451 120.659L615.359 106.188L624.18 74.1449L633.361 37.3353C634.275 33.1979 634.765 30.4381 634.832 29.056C634.646 25.8726 633.059 24.2618 630.071 24.2235C629.644 24.218 627.724 24.47 624.312 24.9796C622.677 25.2352 621.361 25.3567 620.365 25.3439C615.528 25.282 613.673 23.0454 614.799 18.6341C615.96 14.0849 619.386 11.8468 625.076 11.9196C626.641 11.9397 627.975 12.0259 629.078 12.1783L634.041 12.8643C636.247 13.1691 638.132 13.3316 639.697 13.3516C641.119 13.3698 643.306 13.1904 646.257 12.8133C649.243 12.2983 651.447 12.0499 652.87 12.0681C656.142 12.11 657.268 14.1299 656.247 18.1276C655.895 19.5061 655.56 20.5391 655.242 21.2266C651.537 31.8285 647.204 46.8481 642.243 66.2854Z" stroke="black" stroke-width="6"/>
<path d="M709.558 56.3598L708.028 62.3564C714.662 56.4943 720.537 52.4896 725.652 50.3423C730.803 48.0571 736.792 46.9582 743.621 47.0456C757.562 47.2242 766.468 52.5938 770.338 63.1544C776.653 57.4266 782.599 53.4227 788.176 51.143C793.753 48.8633 800.454 47.7735 808.278 47.8737C816.387 47.9776 823.22 49.7247 828.778 53.1152C834.941 56.9283 838.512 62.2296 839.49 69.019C840.179 73.5919 839.274 80.7721 836.776 90.5596L831.656 110.617L827.484 126.123C826.042 131.775 825.233 135.222 825.059 136.465C824.504 141.437 825.72 143.942 828.707 143.98C829.703 143.993 831.249 143.805 833.347 143.417C835.444 143.029 836.99 142.841 837.986 142.854C842.965 142.918 844.927 145.017 843.872 149.153C842.64 153.978 839.179 156.354 833.489 156.281C831.355 156.254 828.153 155.936 823.884 155.328C819.721 154.86 816.502 154.611 814.226 154.582C811.808 154.551 808.198 154.712 803.398 155.066C798.705 155.559 795.149 155.79 792.731 155.759C786.756 155.683 784.384 153.232 785.616 148.407C786.671 144.271 789.475 142.233 794.028 142.291C794.597 142.298 795.984 142.454 798.19 142.759C798.973 143.046 800.076 143.198 801.499 143.217C803.917 143.247 805.71 142.095 806.877 139.759C808.186 137.424 810.109 131.571 812.643 122.199L816.076 109.588L819.56 95.9405C821.987 86.4286 822.964 79.5259 822.49 75.2324C822.193 70.8029 820.299 67.321 816.807 64.7868C813.315 62.2526 808.937 60.9518 803.673 60.8844C793.572 60.7551 785.668 64.0423 779.961 70.7461C775.459 76.0823 771.502 85.4363 768.089 98.808L764.341 113.489C761.034 126.448 759.243 134.585 758.967 137.9C758.869 141.08 760.172 142.687 762.875 142.722C763.728 142.733 764.973 142.61 766.608 142.355C768.421 141.963 769.754 141.773 770.607 141.784C772.599 141.809 774.059 142.519 774.987 143.914C776.093 145.173 776.4 146.768 775.908 148.698C774.746 153.247 770.823 155.478 764.136 155.393C762.003 155.366 758.872 155.049 754.745 154.443C750.76 153.838 747.701 153.523 745.567 153.495C742.579 153.457 739.237 153.691 735.54 154.197C731.842 154.703 728.642 154.938 725.939 154.904C720.107 154.829 717.788 152.448 718.985 147.761C720.076 143.488 722.755 141.378 727.023 141.433C728.587 141.453 729.762 141.606 730.545 141.893C732.431 142.332 733.872 142.558 734.868 142.571C738.282 142.614 740.957 139.122 742.894 132.093L745.588 122.377C746.504 119.346 747.332 116.383 748.071 113.488C748.846 111.009 749.252 109.7 749.287 109.562L753.668 92.3997C756.729 80.4064 757.15 72.0445 754.932 67.3137C752.857 62.5848 747.551 60.1657 739.015 60.0564C729.626 59.9361 721.597 63.1526 714.929 69.7058C709.432 75.0292 704.976 84.3768 701.563 97.7486L694.544 125.25C693.136 130.764 692.381 134.005 692.277 134.972C691.649 139.666 692.616 142.03 695.177 142.062C695.888 142.071 697.452 141.815 699.869 141.293C700.154 141.296 700.598 141.233 701.202 141.102C701.771 141.11 702.269 141.116 702.696 141.121C708.244 141.192 710.438 143.503 709.277 148.052C708.151 152.463 704.387 154.628 697.985 154.546C695.567 154.515 692.632 154.27 689.181 153.811C684.485 153.197 680.43 152.869 677.015 152.825C675.308 152.803 672.126 152.97 667.468 153.325C661.21 153.798 657.441 154.026 656.16 154.01C650.47 153.937 648.223 151.557 649.419 146.87C650.51 142.597 653.758 140.495 659.164 140.564C659.449 140.567 659.875 140.573 660.444 140.58C660.978 140.725 661.387 140.8 661.672 140.803L666.743 141.906C666.85 142.045 667.117 142.118 667.544 142.123C671.385 142.173 674.31 138.822 676.318 132.07L679.753 120.289L687.828 88.6521C690.819 76.9346 692.328 69.6238 692.356 66.7198C692.526 63.8176 691.188 62.3482 688.343 62.3118C687.774 62.3045 685.694 62.6236 682.104 63.2692C680.611 63.5267 679.438 63.6499 678.584 63.639C673.32 63.5716 671.252 61.3322 672.378 56.9209C673.574 52.2339 677.088 49.9278 682.921 50.0025C684.486 50.0225 686.585 50.1877 689.217 50.498C691.85 50.8083 694.162 50.9763 696.154 51.0018C696.865 51.0109 697.665 50.952 698.554 50.8251C699.407 50.836 699.905 50.8424 700.047 50.8442L705.327 50.2894L705.967 50.2976C709.382 50.3414 710.579 52.3621 709.558 56.3598Z" stroke="black" stroke-width="6"/>
</g>
</svg>
